<svg width="22" height="20" viewBox="0 0 22 20" fill="none" xmlns="http://www.w3.org/2000/svg">
<path d="M21.3786 1.55629C21.3786 1.35738 21.2996 1.16661 21.159 1.02596C21.0183 0.885307 20.8275 0.80629 20.6286 0.80629C16.4961 0.80629 12.2558 5.4666 9.90081 8.55285C9.05975 8.29527 8.17 8.23853 7.30303 8.38718C6.43606 8.53583 5.61604 8.88573 4.90883 9.40877C4.20161 9.93182 3.62692 10.6134 3.23091 11.3989C2.83491 12.1843 2.62862 13.0517 2.62862 13.9313C2.62862 16.8263 0.796746 18.1247 0.709559 18.1847C0.576517 18.2746 0.475811 18.4047 0.422249 18.5561C0.368688 18.7074 0.365097 18.8719 0.412005 19.0254C0.458913 19.179 0.553845 19.3134 0.68284 19.4089C0.811836 19.5045 0.968088 19.5562 1.12862 19.5563H8.25362C9.13324 19.5563 10.0006 19.35 10.786 18.954C11.5715 18.558 12.2531 17.9833 12.7761 17.2761C13.2992 16.5689 13.6491 15.7488 13.7977 14.8819C13.9464 14.0149 13.8896 13.1252 13.6321 12.2841C16.7192 9.9291 21.3786 5.68879 21.3786 1.55629ZM8.25362 18.0563H2.87518C3.508 17.1572 4.12862 15.7988 4.12862 13.9313C4.12862 13.1154 4.37055 12.3179 4.82381 11.6396C5.27707 10.9612 5.92131 10.4325 6.67505 10.1203C7.4288 9.80808 8.2582 9.72639 9.05837 9.88555C9.85854 10.0447 10.5935 10.4376 11.1704 11.0145C11.7473 11.5914 12.1402 12.3264 12.2994 13.1265C12.4585 13.9267 12.3768 14.7561 12.0646 15.5099C11.7524 16.2636 11.2237 16.9078 10.5453 17.3611C9.867 17.8144 9.06947 18.0563 8.25362 18.0563ZM11.293 9.2016C11.6142 8.78535 11.9296 8.39316 12.2389 8.02504C12.9962 8.53664 13.6483 9.18873 14.1599 9.94598C13.7911 10.2547 13.3989 10.57 12.9833 10.8919C12.5463 10.2149 11.97 9.63865 11.293 9.2016ZM15.2961 8.95035C14.7299 8.15141 14.0326 7.45407 13.2336 6.88785C16.213 3.65067 18.4602 2.6691 19.7867 2.39629C19.5196 3.72379 18.5333 5.97098 15.2961 8.95035Z" fill="black"/>
</svg>
