<svg width="44" height="43" viewBox="0 0 44 43" fill="none" xmlns="http://www.w3.org/2000/svg">
<path d="M39.6354 5.75C39.6354 5.4019 39.4938 5.06806 39.2418 4.82192C38.9898 4.57578 38.648 4.4375 38.2916 4.4375C30.8876 4.4375 23.2903 12.593 19.071 17.994C17.5641 17.5432 15.9699 17.4439 14.4166 17.704C12.8633 17.9642 11.3941 18.5765 10.127 19.4918C8.8599 20.4072 7.83024 21.6 7.12073 22.9745C6.41121 24.349 6.04161 25.8669 6.04162 27.4062C6.04162 32.4725 2.75951 34.7448 2.6033 34.8498C2.36493 35.007 2.1845 35.2348 2.08854 35.4996C1.99257 35.7644 1.98614 36.0523 2.07018 36.321C2.15423 36.5897 2.32431 36.8249 2.55543 36.9922C2.78654 37.1594 3.0665 37.2498 3.35412 37.25H16.1197C17.6957 37.25 19.2498 36.889 20.657 36.196C22.0642 35.503 23.2855 34.4973 24.2226 33.2596C25.1597 32.022 25.7866 30.587 26.053 29.0698C26.3193 27.5526 26.2176 25.9955 25.7561 24.5237C31.2873 20.4024 39.6354 12.9819 39.6354 5.75ZM16.1197 34.625H6.48338C7.61717 33.0516 8.72912 30.6744 8.72912 27.4062C8.72912 25.9785 9.16257 24.5828 9.97466 23.3957C10.7868 22.2086 11.941 21.2834 13.2915 20.737C14.6419 20.1906 16.1279 20.0477 17.5616 20.3262C18.9952 20.6047 20.3121 21.2923 21.3457 22.3018C22.3793 23.3114 23.0832 24.5976 23.3684 25.9979C23.6535 27.3982 23.5072 28.8497 22.9478 30.1687C22.3884 31.4878 21.4411 32.6152 20.2258 33.4084C19.0104 34.2016 17.5815 34.625 16.1197 34.625ZM21.5653 19.1293C22.1409 18.4009 22.7058 17.7145 23.2601 17.0703C24.6168 17.9656 25.7852 19.1068 26.7018 20.432C26.0411 20.9723 25.3384 21.5241 24.5938 22.0873C23.8107 20.9025 22.7783 19.8941 21.5653 19.1293ZM28.7376 18.6896C27.7231 17.2915 26.4737 16.0711 25.0422 15.0802C30.3803 9.41516 34.4065 7.69742 36.7833 7.22C36.3046 9.54312 34.5375 13.4757 28.7376 18.6896Z" fill="#472B30"/>
</svg>
