<svg width="44" height="43" viewBox="0 0 44 43" fill="none" xmlns="http://www.w3.org/2000/svg">
<path d="M29.8958 18.875H25.8646C25.5082 18.875 25.1664 18.7367 24.9144 18.4906C24.6624 18.2444 24.5208 17.9106 24.5208 17.5625C24.5208 17.2144 24.6624 16.8806 24.9144 16.6344C25.1664 16.3883 25.5082 16.25 25.8646 16.25H29.8958C30.2522 16.25 30.594 16.3883 30.846 16.6344C31.098 16.8806 31.2396 17.2144 31.2396 17.5625C31.2396 17.9106 31.098 18.2444 30.846 18.4906C30.594 18.7367 30.2522 18.875 29.8958 18.875ZM17.8021 16.25H16.4583V14.9375C16.4583 14.5894 16.3168 14.2556 16.0648 14.0094C15.8128 13.7633 15.471 13.625 15.1146 13.625C14.7582 13.625 14.4164 13.7633 14.1644 14.0094C13.9124 14.2556 13.7708 14.5894 13.7708 14.9375V16.25H12.4271C12.0707 16.25 11.7289 16.3883 11.4769 16.6344C11.2249 16.8806 11.0833 17.2144 11.0833 17.5625C11.0833 17.9106 11.2249 18.2444 11.4769 18.4906C11.7289 18.7367 12.0707 18.875 12.4271 18.875H13.7708V20.1875C13.7708 20.5356 13.9124 20.8694 14.1644 21.1156C14.4164 21.3617 14.7582 21.5 15.1146 21.5C15.471 21.5 15.8128 21.3617 16.0648 21.1156C16.3168 20.8694 16.4583 20.5356 16.4583 20.1875V18.875H17.8021C18.1585 18.875 18.5003 18.7367 18.7523 18.4906C19.0043 18.2444 19.1458 17.9106 19.1458 17.5625C19.1458 17.2144 19.0043 16.8806 18.7523 16.6344C18.5003 16.3883 18.1585 16.25 17.8021 16.25ZM40.8944 33.4191C40.388 34.1255 39.7294 34.715 38.9648 35.1462C38.2002 35.5773 37.3482 35.8398 36.4687 35.915C35.5892 35.9902 34.7035 35.8764 33.8738 35.5815C33.0441 35.2867 32.2906 34.8179 31.6662 34.2083C31.6461 34.1886 31.6259 34.1689 31.6074 34.1476L24.9374 26.75H18.7226L12.0592 34.1476L12.0004 34.2083C10.8653 35.3146 9.32754 35.9364 7.72396 35.9375C6.84118 35.9372 5.96918 35.7481 5.16921 35.3835C4.36924 35.0188 3.6607 34.4876 3.09338 33.827C2.52605 33.1663 2.11369 32.3924 1.88526 31.5595C1.65684 30.7266 1.61789 29.855 1.77115 29.0059C1.77034 28.9982 1.77034 28.9905 1.77115 28.9829L4.5208 15.1869C4.93002 12.9114 6.14717 10.8497 7.95837 9.36383C9.76957 7.87799 12.059 7.06316 14.4242 7.0625H29.224C31.5821 7.06617 33.8645 7.87635 35.6748 9.35236C37.4851 10.8284 38.709 12.877 39.1341 15.1426C39.1341 15.1524 39.1341 15.1623 39.1341 15.1721L41.8838 28.9813C41.8846 28.9889 41.8846 28.9966 41.8838 29.0042C42.0261 29.7675 42.0119 30.5507 41.8421 31.3085C41.6723 32.0664 41.3502 32.7838 40.8944 33.4191ZM29.224 24.125C31.1841 24.125 33.0639 23.3645 34.4499 22.0107C35.8359 20.6569 36.6146 18.8208 36.6146 16.9062C36.6146 14.9917 35.8359 13.1556 34.4499 11.8018C33.0639 10.448 31.1841 9.6875 29.224 9.6875H14.4242C12.689 9.68902 11.01 10.2882 9.68243 11.3796C8.35489 12.471 7.46394 13.9847 7.1663 15.6545V15.6758L4.41498 29.4718C4.29336 30.1558 4.39697 30.8598 4.7109 31.4826C5.02483 32.1054 5.5329 32.6149 6.16204 32.9378C6.79119 33.2608 7.50898 33.3805 8.21219 33.2798C8.9154 33.1791 9.56779 32.8631 10.0755 32.3773L17.1168 24.5696C17.2429 24.4299 17.3979 24.318 17.5717 24.2414C17.7454 24.1647 17.9339 24.125 18.1246 24.125H29.224ZM39.2517 29.4718L37.7837 22.089C36.8808 23.513 35.6208 24.6885 34.1229 25.5041C32.625 26.3198 30.9389 26.7486 29.224 26.75H28.5185L33.5912 32.379C33.9736 32.7423 34.4388 33.0119 34.9486 33.1657C35.4584 33.3194 35.9983 33.3528 36.5239 33.2633C37.3995 33.1123 38.1781 32.6285 38.6891 31.9178C39.2001 31.2071 39.4018 30.3275 39.25 29.4718H39.2517Z" fill="#472B30"/>
</svg>
