<svg width="23" height="18" viewBox="0 0 23 18" fill="none" xmlns="http://www.w3.org/2000/svg">
<path d="M15.7488 7.5H13.4988C13.2998 7.5 13.1091 7.42098 12.9684 7.28033C12.8278 7.13968 12.7488 6.94891 12.7488 6.75C12.7488 6.55109 12.8278 6.36032 12.9684 6.21967C13.1091 6.07902 13.2998 6 13.4988 6H15.7488C15.9477 6 16.1384 6.07902 16.2791 6.21967C16.4197 6.36032 16.4988 6.55109 16.4988 6.75C16.4988 6.94891 16.4197 7.13968 16.2791 7.28033C16.1384 7.42098 15.9477 7.5 15.7488 7.5ZM8.99875 6H8.24875V5.25C8.24875 5.05109 8.16973 4.86032 8.02908 4.71967C7.88843 4.57902 7.69766 4.5 7.49875 4.5C7.29984 4.5 7.10907 4.57902 6.96842 4.71967C6.82777 4.86032 6.74875 5.05109 6.74875 5.25V6H5.99875C5.79984 6 5.60907 6.07902 5.46842 6.21967C5.32777 6.36032 5.24875 6.55109 5.24875 6.75C5.24875 6.94891 5.32777 7.13968 5.46842 7.28033C5.60907 7.42098 5.79984 7.5 5.99875 7.5H6.74875V8.25C6.74875 8.44891 6.82777 8.63968 6.96842 8.78033C7.10907 8.92098 7.29984 9 7.49875 9C7.69766 9 7.88843 8.92098 8.02908 8.78033C8.16973 8.63968 8.24875 8.44891 8.24875 8.25V7.5H8.99875C9.19766 7.5 9.38843 7.42098 9.52908 7.28033C9.66973 7.13968 9.74875 6.94891 9.74875 6.75C9.74875 6.55109 9.66973 6.36032 9.52908 6.21967C9.38843 6.07902 9.19766 6 8.99875 6ZM21.8875 15.8109C21.6048 16.2146 21.2372 16.5514 20.8105 16.7978C20.3837 17.0442 19.9082 17.1941 19.4173 17.2371C18.9264 17.2801 18.4321 17.2151 17.969 17.0466C17.5059 16.8781 17.0854 16.6103 16.7369 16.2619C16.7256 16.2506 16.7144 16.2394 16.7041 16.2272L12.9813 12H9.5125L5.79344 16.2272L5.76063 16.2619C5.12707 16.8941 4.26877 17.2494 3.37375 17.25C2.88104 17.2498 2.39434 17.1418 1.94784 16.9334C1.50135 16.7251 1.10589 16.4215 0.78924 16.044C0.472592 15.6665 0.242438 15.2242 0.114944 14.7483C-0.0125489 14.2724 -0.0342888 13.7743 0.0512519 13.2891C0.0508004 13.2847 0.0508004 13.2803 0.0512519 13.2759L1.58594 5.3925C1.81434 4.09225 2.49368 2.91409 3.50459 2.06504C4.51549 1.21599 5.79328 0.750374 7.11344 0.75H15.3738C16.6899 0.7521 17.9638 1.21506 18.9742 2.05849C19.9846 2.90193 20.6678 4.07258 20.905 5.36719C20.905 5.37281 20.905 5.37844 20.905 5.38406L22.4397 13.275C22.4401 13.2794 22.4401 13.2838 22.4397 13.2881C22.5191 13.7243 22.5112 14.1718 22.4164 14.6049C22.3216 15.0379 22.1419 15.4479 21.8875 15.8109ZM15.3738 10.5C16.4678 10.5 17.517 10.0654 18.2906 9.29182C19.0642 8.51823 19.4988 7.46902 19.4988 6.375C19.4988 5.28098 19.0642 4.23177 18.2906 3.45818C17.517 2.6846 16.4678 2.25 15.3738 2.25H7.11344C6.14496 2.25087 5.2078 2.59325 4.46685 3.21691C3.7259 3.84057 3.22862 4.70556 3.0625 5.65969V5.67188L1.52688 13.5553C1.459 13.9461 1.51683 14.3484 1.69204 14.7043C1.86726 15.0602 2.15084 15.3514 2.50198 15.5359C2.85313 15.7204 3.25376 15.7889 3.64625 15.7313C4.03874 15.6738 4.40286 15.4932 4.68625 15.2156L8.61625 10.7541C8.68662 10.6742 8.77317 10.6103 8.87016 10.5665C8.96714 10.5227 9.07233 10.5 9.17875 10.5H15.3738ZM20.9706 13.5553L20.1513 9.33656C19.6473 10.1503 18.9441 10.822 18.108 11.2881C17.272 11.7542 16.3309 11.9992 15.3738 12H14.98L17.8113 15.2166C18.0247 15.4242 18.2844 15.5783 18.5689 15.6661C18.8535 15.7539 19.1548 15.773 19.4481 15.7219C19.9368 15.6356 20.3714 15.3591 20.6566 14.953C20.9418 14.5469 21.0544 14.0443 20.9697 13.5553H20.9706Z" fill="black"/>
</svg>
