<svg width="43" height="43" viewBox="0 0 43 43" fill="none" xmlns="http://www.w3.org/2000/svg">
<g clip-path="url(#clip0_238_43)">
<path d="M34.9896 12.7119C35.4003 11.387 35.5321 9.99128 35.3765 8.61288C35.221 7.23448 34.7815 5.90325 34.0859 4.70315C33.9679 4.49883 33.7983 4.32917 33.5939 4.21123C33.3896 4.09328 33.1578 4.03122 32.9219 4.03127C31.3567 4.028 29.8125 4.39083 28.4126 5.09079C27.0127 5.79075 25.7958 6.80843 24.8594 8.06252H20.8281C19.8917 6.80843 18.6748 5.79075 17.2749 5.09079C15.875 4.39083 14.3308 4.028 12.7656 4.03127C12.5297 4.03122 12.2979 4.09328 12.0936 4.21123C11.8892 4.32917 11.7196 4.49883 11.6016 4.70315C10.906 5.90325 10.4665 7.23448 10.311 8.61288C10.1554 9.99128 10.2872 11.387 10.6979 12.7119C9.86771 14.161 9.42298 15.7988 9.40625 17.4688V18.8125C9.40908 21.0862 10.2345 23.282 11.73 24.9945C13.2255 26.7071 15.2901 27.8207 17.5427 28.1297C16.6232 29.3063 16.1241 30.7568 16.125 32.25V33.5938H12.0938C11.0246 33.5938 9.99923 33.1691 9.24323 32.413C8.48722 31.657 8.0625 30.6317 8.0625 29.5625C8.0625 28.6802 7.88871 27.8065 7.55107 26.9914C7.21342 26.1762 6.71852 25.4355 6.09462 24.8116C5.47073 24.1878 4.73006 23.6929 3.9149 23.3552C3.09975 23.0176 2.22607 22.8438 1.34375 22.8438C0.987365 22.8438 0.645577 22.9853 0.393575 23.2373C0.141573 23.4893 0 23.8311 0 24.1875C0 24.5439 0.141573 24.8857 0.393575 25.1377C0.645577 25.3897 0.987365 25.5313 1.34375 25.5313C2.4129 25.5313 3.43827 25.956 4.19427 26.712C4.95028 27.468 5.375 28.4934 5.375 29.5625C5.375 31.3444 6.08287 33.0534 7.34288 34.3134C8.60289 35.5734 10.3118 36.2813 12.0938 36.2813H16.125V38.9688C16.125 39.3252 16.2666 39.6669 16.5186 39.9189C16.7706 40.171 17.1124 40.3125 17.4688 40.3125C17.8251 40.3125 18.1669 40.171 18.4189 39.9189C18.6709 39.6669 18.8125 39.3252 18.8125 38.9688V32.25C18.8125 31.1809 19.2372 30.1555 19.9932 29.3995C20.7492 28.6435 21.7746 28.2188 22.8438 28.2188C23.9129 28.2188 24.9383 28.6435 25.6943 29.3995C26.4503 30.1555 26.875 31.1809 26.875 32.25V38.9688C26.875 39.3252 27.0166 39.6669 27.2686 39.9189C27.5206 40.171 27.8624 40.3125 28.2188 40.3125C28.5751 40.3125 28.9169 40.171 29.1689 39.9189C29.4209 39.6669 29.5625 39.3252 29.5625 38.9688V32.25C29.5634 30.7568 29.0643 29.3063 28.1448 28.1297C30.3974 27.8207 32.462 26.7071 33.9575 24.9945C35.453 23.282 36.2784 21.0862 36.2812 18.8125V17.4688C36.2645 15.7988 35.8198 14.161 34.9896 12.7119ZM33.5938 18.8125C33.5938 20.5944 32.8859 22.3034 31.6259 23.5634C30.3659 24.8234 28.6569 25.5313 26.875 25.5313H18.8125C17.0306 25.5313 15.3216 24.8234 14.0616 23.5634C12.8016 22.3034 12.0938 20.5944 12.0938 18.8125V17.4688C12.1102 16.1251 12.5125 14.8144 13.2527 13.6928C13.3907 13.511 13.4801 13.2969 13.5124 13.0709C13.5447 12.8449 13.519 12.6144 13.4375 12.4012C13.0875 11.4985 12.919 10.5356 12.9418 9.56774C12.9646 8.59985 13.1781 7.64598 13.5702 6.76076C14.6699 6.87907 15.7289 7.24336 16.6687 7.82665C17.6084 8.40993 18.4049 9.19724 18.9989 10.1302C19.12 10.3195 19.2866 10.4755 19.4835 10.5837C19.6804 10.692 19.9013 10.7492 20.126 10.75H25.5598C25.7854 10.75 26.0073 10.6933 26.2051 10.5849C26.403 10.4766 26.5704 10.3202 26.6919 10.1302C27.2859 9.19716 28.0823 8.40978 29.0221 7.82649C29.9619 7.2432 31.0209 6.87895 32.1207 6.76076C32.5122 7.6462 32.7252 8.60019 32.7474 9.56807C32.7695 10.536 32.6005 11.4987 32.25 12.4012C32.1688 12.6124 32.1416 12.8406 32.1709 13.0649C32.2003 13.2893 32.2852 13.5029 32.418 13.6861C33.1655 14.8077 33.5738 16.121 33.5938 17.4688V18.8125Z" fill="#472B30"/>
</g>
<defs>
<clipPath id="clip0_238_43">
<rect width="43" height="43" fill="white"/>
</clipPath>
</defs>
</svg>
