<svg width="34" height="35" viewBox="0 0 34 35" fill="none" xmlns="http://www.w3.org/2000/svg">
<path id="Vector" d="M34 13.25C34 13.6257 33.8507 13.9861 33.5851 14.2517C33.3194 14.5174 32.9591 14.6667 32.5833 14.6667C32.2076 14.6667 31.8473 14.5174 31.5816 14.2517C31.3159 13.9861 31.1667 13.6257 31.1667 13.25V5.33792L19.4207 17.0856C19.1549 17.3515 18.7944 17.5008 18.4184 17.5008C18.0425 17.5008 17.682 17.3515 17.4161 17.0856C17.1503 16.8198 17.001 16.4593 17.001 16.0833C17.001 15.7074 17.1503 15.3469 17.4161 15.081L29.1621 3.33333H21.25C20.8743 3.33333 20.5139 3.18408 20.2483 2.9184C19.9826 2.65272 19.8333 2.29239 19.8333 1.91667C19.8333 1.54094 19.9826 1.18061 20.2483 0.914932C20.5139 0.649256 20.8743 0.5 21.25 0.5H32.5833C32.9591 0.5 33.3194 0.649256 33.5851 0.914932C33.8507 1.18061 34 1.54094 34 1.91667V13.25ZM26.9167 17.5C26.5409 17.5 26.1806 17.6493 25.9149 17.9149C25.6493 18.1806 25.5 18.5409 25.5 18.9167V31.6667H2.83333V9H15.5833C15.9591 9 16.3194 8.85074 16.5851 8.58507C16.8507 8.31939 17 7.95906 17 7.58333C17 7.20761 16.8507 6.84728 16.5851 6.5816C16.3194 6.31592 15.9591 6.16667 15.5833 6.16667H2.83333C2.08189 6.16667 1.36122 6.46518 0.829864 6.99653C0.298511 7.52788 0 8.24855 0 9V31.6667C0 32.4181 0.298511 33.1388 0.829864 33.6701C1.36122 34.2015 2.08189 34.5 2.83333 34.5H25.5C26.2514 34.5 26.9721 34.2015 27.5035 33.6701C28.0348 33.1388 28.3333 32.4181 28.3333 31.6667V18.9167C28.3333 18.5409 28.1841 18.1806 27.9184 17.9149C27.6527 17.6493 27.2924 17.5 26.9167 17.5Z" fill="black"/>
</svg>
