<svg width="43" height="43" viewBox="0 0 43 43" fill="none" xmlns="http://www.w3.org/2000/svg">
<path d="M36.2812 4.03125H6.71875C6.00598 4.03125 5.3224 4.3144 4.8184 4.8184C4.3144 5.3224 4.03125 6.00598 4.03125 6.71875V36.2812C4.03125 36.994 4.3144 37.6776 4.8184 38.1816C5.3224 38.6856 6.00598 38.9688 6.71875 38.9688H36.2812C36.994 38.9688 37.6776 38.6856 38.1816 38.1816C38.6856 37.6776 38.9688 36.994 38.9688 36.2812V6.71875C38.9688 6.00598 38.6856 5.3224 38.1816 4.8184C37.6776 4.3144 36.994 4.03125 36.2812 4.03125ZM36.2812 36.2812H6.71875V6.71875H36.2812V36.2812ZM16.125 18.8125V29.5625C16.125 29.9189 15.9834 30.2607 15.7314 30.5127C15.4794 30.7647 15.1376 30.9062 14.7812 30.9062C14.4249 30.9062 14.0831 30.7647 13.8311 30.5127C13.5791 30.2607 13.4375 29.9189 13.4375 29.5625V18.8125C13.4375 18.4561 13.5791 18.1143 13.8311 17.8623C14.0831 17.6103 14.4249 17.4688 14.7812 17.4688C15.1376 17.4688 15.4794 17.6103 15.7314 17.8623C15.9834 18.1143 16.125 18.4561 16.125 18.8125ZM30.9062 23.5156V29.5625C30.9062 29.9189 30.7647 30.2607 30.5127 30.5127C30.2607 30.7647 29.9189 30.9062 29.5625 30.9062C29.2061 30.9062 28.8643 30.7647 28.6123 30.5127C28.3603 30.2607 28.2188 29.9189 28.2188 29.5625V23.5156C28.2188 22.6247 27.8648 21.7702 27.2348 21.1402C26.6048 20.5102 25.7503 20.1562 24.8594 20.1562C23.9684 20.1562 23.1139 20.5102 22.4839 21.1402C21.8539 21.7702 21.5 22.6247 21.5 23.5156V29.5625C21.5 29.9189 21.3584 30.2607 21.1064 30.5127C20.8544 30.7647 20.5126 30.9062 20.1562 30.9062C19.7999 30.9062 19.4581 30.7647 19.2061 30.5127C18.9541 30.2607 18.8125 29.9189 18.8125 29.5625V18.8125C18.8142 18.4834 18.9366 18.1663 19.1565 17.9214C19.3765 17.6765 19.6786 17.5209 20.0057 17.484C20.3328 17.4471 20.662 17.5316 20.931 17.7214C21.1999 17.9111 21.3898 18.193 21.4647 18.5135C22.3738 17.8969 23.4336 17.5395 24.5304 17.4797C25.6272 17.4199 26.7196 17.6601 27.6902 18.1743C28.6609 18.6886 29.4731 19.4575 30.0397 20.3985C30.6063 21.3396 30.9059 22.4172 30.9062 23.5156ZM16.7969 14.1094C16.7969 14.508 16.6787 14.8977 16.4572 15.2292C16.2357 15.5607 15.9209 15.819 15.5526 15.9716C15.1843 16.1241 14.779 16.164 14.388 16.0863C13.997 16.0085 13.6379 15.8165 13.356 15.5346C13.0741 15.2527 12.8821 14.8936 12.8044 14.5026C12.7266 14.1116 12.7665 13.7063 12.9191 13.338C13.0716 12.9697 13.33 12.6549 13.6614 12.4334C13.9929 12.212 14.3826 12.0938 14.7812 12.0938C15.3158 12.0938 15.8285 12.3061 16.2065 12.6841C16.5845 13.0621 16.7969 13.5748 16.7969 14.1094Z" fill="#472B30"/>
</svg>
