<svg width="1563" height="989" viewBox="0 0 1563 989" fill="none" xmlns="http://www.w3.org/2000/svg">
<path d="M487.82 374.76C487.82 374.76 655.682 372.018 886.609 440.571C1117.53 509.125 1266.85 613.326 1266.85 613.326C1266.85 613.326 1430.07 720.27 1401.32 790.652C1372.57 861.033 1244.59 866.518 1244.59 866.518C1244.59 866.518 1338.26 835.44 1323.42 765.058C1313.87 719.758 1255.06 624.002 1035.92 529.234C898.09 469.62 641.242 387.922 487.82 374.76Z" fill="black"/>
<path d="M1000.57 902.239C1000.57 902.239 832.707 904.981 601.781 836.427C370.855 767.874 221.541 663.672 221.541 663.672C221.541 663.672 58.3158 556.728 87.0657 486.347C115.816 415.965 243.799 410.481 243.799 410.481C243.799 410.481 150.13 441.558 164.969 511.94C174.521 557.24 233.328 652.996 452.467 747.764C590.3 807.379 847.147 889.076 1000.57 902.239Z" fill="black"/>
<path d="M300.547 708.313L320.578 708.127C321.208 715.799 323.592 722.633 327.731 728.627C331.869 734.621 337.479 739.322 344.56 742.73C351.827 746.136 360.283 747.794 369.928 747.704C378.274 747.625 385.218 746.372 390.76 743.945C396.485 741.331 400.717 737.819 403.457 733.406C406.383 728.991 407.818 723.858 407.761 718.008C407.704 711.976 406.172 707.146 403.17 703.517C400.167 699.889 395.872 696.821 390.283 694.314C384.694 691.806 378.086 689.4 370.459 687.094C363.204 684.968 355.853 682.478 348.406 679.622C340.959 676.767 333.97 673.267 327.438 669.122C321.091 664.977 315.942 659.998 311.991 654.184C308.039 648.188 306.022 640.986 305.941 632.577C305.862 624.351 308.014 616.652 312.397 609.481C316.964 602.126 323.585 596.214 332.26 591.746C341.119 587.093 351.762 584.708 364.188 584.592C383.663 584.411 398.273 589.485 408.018 599.815C417.762 610.144 422.532 623.903 422.326 641.089L402.295 641.276C401.799 628.301 398 619.012 390.898 613.411C383.795 607.81 374.587 605.062 363.273 605.168C353.814 605.256 345.581 607.527 338.575 611.98C331.568 616.25 328.108 622.955 328.195 632.095C328.234 636.117 329.01 639.674 330.524 642.768C332.221 645.677 334.844 648.395 338.393 650.921C342.127 653.446 347.066 655.959 353.211 658.462C359.54 660.779 367.263 663.358 376.379 666.198C382.332 667.971 388.381 670.108 394.526 672.61C400.857 675.11 406.637 678.257 411.868 682.046C417.283 685.835 421.596 690.731 424.808 696.734C428.202 702.553 429.943 709.94 430.028 718.898C430.111 727.49 428.056 735.553 423.861 743.087C419.851 750.437 413.416 756.439 404.558 761.092C395.884 765.744 384.592 768.134 370.681 768.264C358.811 768.374 348.595 766.916 340.033 763.887C331.655 760.675 324.753 756.535 319.325 751.466C313.897 746.398 309.673 741.136 306.652 735.679C303.816 730.038 301.91 724.754 300.936 719.827C299.961 714.901 299.831 711.063 300.547 708.313ZM440.287 627.759L522.082 626.996L522.279 647.561L440.485 648.324L440.287 627.759ZM469.714 591.835L491.971 591.628L493.63 764.374L471.372 764.583L469.714 591.835ZM591.238 766.207C580.295 766.309 570.158 763.387 560.826 757.441C551.678 751.311 544.272 742.97 538.605 732.419C533.123 721.684 530.316 709.462 530.184 695.751C530.053 682.042 532.717 669.768 538.178 658.931C543.639 648.094 551.069 639.523 560.468 633.22C570.054 626.915 580.781 623.707 592.651 623.596C605.635 623.475 615.496 626.674 622.237 633.192C629.161 639.526 633.881 648.075 636.395 658.838C639.095 669.599 640.509 681.56 640.635 694.721C640.702 701.668 640.032 709.261 638.628 717.501C637.221 725.559 634.699 733.352 631.061 740.881C627.608 748.226 622.658 754.305 616.211 759.119C609.764 763.749 601.44 766.112 591.238 766.207ZM596.602 745.316C606.062 745.228 613.83 742.87 619.906 738.243C626.169 733.614 630.748 727.538 633.643 720.016C636.538 712.31 637.941 703.887 637.853 694.748C637.756 684.693 636.095 675.934 632.871 668.468C629.829 660.818 625.135 654.921 618.789 650.775C612.626 646.445 604.908 644.323 595.634 644.409C581.724 644.539 571.012 649.484 563.501 659.243C555.988 668.82 552.301 680.92 552.441 695.544C552.534 705.233 554.473 713.898 558.255 721.541C562.223 729 567.473 734.893 574.007 739.219C580.724 743.361 588.256 745.393 596.602 745.316ZM637.192 625.923L659.449 625.715L660.765 762.816L640.456 763.006C640.456 763.006 640.255 761.363 639.852 758.076C639.635 754.787 639.32 750.951 638.906 746.567C638.494 742.183 638.273 738.529 638.245 735.604L637.192 625.923ZM687.364 625.455L709.621 625.248L710.937 762.349L688.68 762.556L687.364 625.455ZM754.332 645.398C744.873 645.486 736.92 647.937 730.475 652.75C724.212 657.379 719.258 663.092 715.614 669.89C712.153 676.504 709.896 682.924 708.843 689.149L708.412 673.248C708.396 671.603 708.741 668.857 709.445 665.012C710.151 661.167 711.501 656.858 713.495 652.086C715.488 647.131 718.133 642.444 721.429 638.026C724.909 633.423 729.325 629.634 734.676 626.659C740.026 623.684 746.504 622.161 754.108 622.09L754.332 645.398ZM773.105 569.81L795.362 569.603L797.204 761.545L774.947 761.752L773.105 569.81ZM853.638 569.059L853.894 595.657L824.96 595.927L824.705 569.329L853.638 569.059ZM828.569 624.138L850.826 623.931L852.142 761.032L829.885 761.239L828.569 624.138ZM931.401 738.629C921.571 738.721 912.182 736.523 903.235 732.036C894.473 727.365 887.267 720.667 881.618 711.945C876.156 703.22 873.365 692.734 873.247 680.487C873.13 668.239 875.719 657.703 881.013 648.878C886.306 639.871 893.288 632.95 901.96 628.116C910.63 623.099 920.065 620.543 930.267 620.448C933.42 620.418 936.389 620.665 939.177 621.188C942.149 621.525 944.936 622.139 947.542 623.029L1004.02 622.502L1004.25 646.084C996.27 646.158 988.28 644.77 980.277 641.92C972.459 639.067 965.753 636.114 960.159 633.058L959.035 631.971C965.56 635.384 970.886 639.448 975.012 644.163C979.323 648.876 982.528 654.239 984.626 660.253C986.909 666.081 988.083 672.469 988.149 679.416C988.267 691.663 985.679 702.199 980.384 711.024C975.275 719.847 968.384 726.676 959.713 731.509C951.039 736.161 941.602 738.533 931.401 738.629ZM973.032 814.75L972.974 808.718C972.881 799.029 970.217 792.015 964.982 787.676C959.932 783.336 952.307 781.213 942.105 781.308L914.284 781.568C908.164 781.625 902.779 781.127 898.132 780.073C893.672 779.2 889.948 777.773 886.961 775.79C883.975 773.807 881.725 771.36 880.213 768.448C878.701 765.537 877.928 762.254 877.893 758.598C877.826 751.652 879.909 746.422 884.142 742.909C888.372 739.213 893.636 736.879 899.934 735.906C906.232 734.933 912.259 734.877 918.017 735.737L931.401 738.629C921.39 739.271 913.61 740.349 908.06 741.863C902.695 743.376 900.036 746.509 900.081 751.262C900.108 754.004 901.149 756.279 903.207 758.088C905.449 759.712 908.702 760.504 912.968 760.465L941.903 760.195C951.547 760.105 960.37 761.302 968.369 763.788C976.371 766.455 982.813 770.874 987.695 777.044C992.579 783.398 995.073 792.058 995.179 803.026L995.289 814.543L973.032 814.75ZM931.203 718.064C937.324 718.007 942.967 716.491 948.132 713.519C953.483 710.543 957.801 706.207 961.085 700.509C964.369 694.811 965.971 687.849 965.892 679.623C965.813 671.397 964.077 664.466 960.685 658.83C957.475 653.01 953.167 648.663 947.76 645.788C942.352 642.73 936.587 641.23 930.466 641.287C924.346 641.344 918.611 642.952 913.262 646.109C907.911 649.085 903.594 653.421 900.31 659.119C897.025 664.817 895.424 671.87 895.504 680.279C895.584 688.505 897.319 695.436 900.713 701.072C904.105 706.707 908.506 710.963 913.913 713.838C919.319 716.712 925.082 718.121 931.203 718.064ZM1122.21 758.514L1121.38 672.414C1121.31 665.285 1120.14 659.445 1117.87 654.896C1115.6 650.164 1112.23 646.631 1107.76 644.296C1103.28 641.961 1097.71 640.825 1091.03 640.887C1083.42 640.958 1076.39 642.943 1069.94 646.842C1063.49 650.742 1058.16 656.093 1053.96 662.897C1049.94 669.516 1047.51 677.216 1046.67 685.999L1046.24 670.099C1047.09 662.412 1048.88 655.448 1051.6 649.207C1054.51 642.964 1058.07 637.629 1062.3 633.202C1066.7 628.591 1071.68 625.071 1077.22 622.643C1082.95 620.212 1088.96 618.968 1095.27 618.909C1102.69 618.84 1109.38 619.875 1115.33 622.013C1121.29 624.151 1126.33 627.303 1130.45 631.47C1134.57 635.636 1137.77 640.725 1140.06 646.737C1142.34 652.566 1143.51 659.228 1143.59 666.723L1144.47 758.306L1122.21 758.514ZM1026.5 759.406L1024.66 567.465L1046.92 567.257L1048.76 759.198L1026.5 759.406ZM1161.35 621.035L1243.14 620.273L1243.34 640.838L1161.54 641.601L1161.35 621.035ZM1190.77 585.112L1213.03 584.904L1214.69 757.652L1192.43 757.859L1190.77 585.112Z" fill="black"/>
<path d="M901.67 586.462C896.856 586.298 892.757 589.863 892.349 594.597L889.391 628.865C888.445 635.391 878.475 636.15 873.625 631.607L853.824 607.266C850.486 604.14 845.969 602.559 841.378 602.897L804.996 608.756C801.082 609.387 796.816 602.239 798.504 598.701L817.516 569.818C819.51 566.783 819.631 562.916 817.822 559.772L801.296 531.071C799.339 525.276 807.361 516.711 813.352 518.274L844.142 528.512C848.019 529.526 852.155 528.338 854.863 525.422L877.344 498.165C881.508 493.696 892.182 496.401 892.182 502.47V533.813C894.037 545.696 900.529 547.524 909.803 551.18L926.84 553.566C964.057 557.313 981.214 553.922 1023.88 525.587L1092.5 465.26C1092.5 465.26 1059.77 527.058 1008.11 561.235C974.027 583.784 925.727 587.294 901.679 586.472L901.67 586.462Z" fill="black"/>
<g clip-path="url(#clip0_261_181)">
<path d="M292.38 320.329L276.259 320.661C262.498 306.108 255.395 288.021 254.949 266.401C254.52 245.53 260.868 226.958 273.994 210.685L289.991 210.355C277.713 227.362 271.782 245.925 272.196 266.046C272.61 286.167 279.338 304.261 292.38 320.329ZM344.421 313.757L326.987 314.116L282.22 210.515L299.779 210.154L344.421 313.757ZM466.591 206.719L425.064 312.096L407.443 312.459L448.783 207.086L466.591 206.719ZM475.519 316.558L459.522 316.888C471.935 300.379 477.933 282.022 477.517 261.818C477.105 241.781 470.352 223.478 457.258 206.911L473.379 206.579C487.207 222.34 494.335 240.634 494.764 261.463C495.205 282.917 488.79 301.282 475.519 316.558ZM303.615 460.128L287.494 460.46C273.733 445.907 266.63 427.819 266.185 406.2C265.755 385.328 272.103 366.757 285.229 350.483L301.226 350.154C288.948 367.16 283.017 385.723 283.431 405.845C283.845 425.964 290.574 444.06 303.615 460.128ZM365.272 440.041C362.023 440.108 359.295 439.164 357.087 437.209C354.88 435.254 353.746 432.819 353.686 429.903C353.625 426.904 354.678 424.423 356.847 422.461C359.057 420.499 361.828 419.484 365.161 419.415C368.535 419.346 371.305 420.268 373.47 422.182C375.675 424.054 376.808 426.468 376.869 429.426C376.932 432.466 375.879 434.989 373.711 436.993C371.584 438.953 368.772 439.969 365.272 440.041ZM443.876 438.423C440.626 438.49 437.898 437.546 435.691 435.591C433.483 433.636 432.35 431.2 432.29 428.285C432.228 425.286 433.281 422.804 435.45 420.842C437.66 418.88 440.431 417.865 443.764 417.797C447.138 417.727 449.908 418.649 452.073 420.563C454.278 422.435 455.412 424.849 455.473 427.808C455.535 430.848 454.482 433.37 452.315 435.374C450.188 437.334 447.375 438.351 443.876 438.423ZM496.457 456.157L480.46 456.486C492.873 439.977 498.872 421.621 498.456 401.417C498.043 381.379 491.29 363.077 478.196 346.51L494.318 346.178C508.145 361.938 515.273 380.233 515.702 401.062C516.144 422.516 509.728 440.881 496.457 456.157ZM289.761 577.751C285.357 580.425 278.948 581.848 270.533 582.022C260.701 582.224 252.683 579.409 246.479 573.578C240.274 567.746 237.075 560.123 236.881 550.708C236.657 539.836 239.73 531.208 246.1 524.825C252.511 518.4 261.173 515.076 272.088 514.851C279.628 514.696 285.106 515.583 288.521 517.514L288.866 534.26C284.678 531.262 280.043 529.815 274.961 529.919C269.296 530.036 264.831 531.795 261.567 535.196C258.344 538.555 256.792 543.151 256.912 548.983C257.029 554.649 258.704 559.073 261.936 562.257C265.169 565.399 269.555 566.914 275.095 566.8C280.011 566.699 284.791 565.058 289.435 561.878L289.761 577.751ZM332.134 599.57L316.013 599.902C302.252 585.349 295.149 567.262 294.704 545.642C294.274 524.771 300.622 506.199 313.748 489.925L329.745 489.596C317.468 506.602 311.536 525.165 311.95 545.287C312.365 565.407 319.093 583.502 332.134 599.57ZM377.981 486.477L371.492 514.367L354.495 514.717L365.797 486.728L377.981 486.477ZM351.987 487.013L345.684 514.898L328.5 515.252L339.739 487.265L351.987 487.013ZM395.514 598.265L379.517 598.594C391.93 582.085 397.929 563.729 397.513 543.525C397.1 523.488 390.347 505.185 377.253 488.618L393.375 488.286C407.202 504.047 414.33 522.341 414.759 543.17C415.201 564.624 408.785 582.989 395.514 598.265ZM462.852 596.879L446.73 597.211C432.97 582.658 425.866 564.57 425.421 542.951C424.991 522.079 431.34 503.508 444.466 487.234L460.462 486.904C448.185 503.911 442.253 522.474 442.667 542.596C443.081 562.715 449.81 580.811 462.852 596.879ZM508.698 483.786L502.209 511.675L485.213 512.025L496.514 484.037L508.698 483.786ZM482.704 484.321L476.402 512.207L459.218 512.561L470.456 484.573L482.704 484.321ZM526.231 595.574L510.235 595.903C522.648 579.394 528.646 561.038 528.23 540.834C527.817 520.796 521.064 502.493 507.97 485.926L524.092 485.594C537.919 501.355 545.047 519.649 545.476 540.479C545.918 561.932 539.503 580.297 526.231 595.574Z" fill="black"/>
</g>
<defs>
<clipPath id="clip0_261_181">
<rect width="309" height="391" fill="white" transform="translate(229.678 211.222) rotate(-1.17957)"/>
</clipPath>
</defs>
</svg>
