<svg width="18" height="22" viewBox="0 0 18 22" fill="none" xmlns="http://www.w3.org/2000/svg">
<path d="M15.75 20H11.1131C11.892 19.3045 12.6266 18.5608 13.3125 17.7734C15.8859 14.8138 17.25 11.6938 17.25 8.75C17.25 6.56196 16.3808 4.46354 14.8336 2.91637C13.2865 1.36919 11.188 0.5 9 0.5C6.81196 0.5 4.71354 1.36919 3.16637 2.91637C1.61919 4.46354 0.75 6.56196 0.75 8.75C0.75 11.6938 2.11031 14.8138 4.6875 17.7734C5.37338 18.5608 6.10795 19.3045 6.88688 20H2.25C2.05109 20 1.86032 20.079 1.71967 20.2197C1.57902 20.3603 1.5 20.5511 1.5 20.75C1.5 20.9489 1.57902 21.1397 1.71967 21.2803C1.86032 21.421 2.05109 21.5 2.25 21.5H15.75C15.9489 21.5 16.1397 21.421 16.2803 21.2803C16.421 21.1397 16.5 20.9489 16.5 20.75C16.5 20.5511 16.421 20.3603 16.2803 20.2197C16.1397 20.079 15.9489 20 15.75 20ZM2.25 8.75C2.25 6.95979 2.96116 5.2429 4.22703 3.97703C5.4929 2.71116 7.20979 2 9 2C10.7902 2 12.5071 2.71116 13.773 3.97703C15.0388 5.2429 15.75 6.95979 15.75 8.75C15.75 14.1153 10.5497 18.5938 9 19.8125C7.45031 18.5938 2.25 14.1153 2.25 8.75ZM12.75 8.75C12.75 8.00832 12.5301 7.2833 12.118 6.66661C11.706 6.04993 11.1203 5.56928 10.4351 5.28545C9.74984 5.00162 8.99584 4.92736 8.26841 5.07205C7.54098 5.21675 6.8728 5.5739 6.34835 6.09835C5.8239 6.6228 5.46675 7.29098 5.32205 8.01841C5.17736 8.74584 5.25162 9.49984 5.53545 10.1851C5.81928 10.8703 6.29993 11.456 6.91661 11.868C7.5333 12.2801 8.25832 12.5 9 12.5C9.99456 12.5 10.9484 12.1049 11.6517 11.4017C12.3549 10.6984 12.75 9.74456 12.75 8.75ZM6.75 8.75C6.75 8.30499 6.88196 7.86998 7.12919 7.49997C7.37643 7.12996 7.72783 6.84157 8.13896 6.67127C8.5501 6.50097 9.0025 6.45642 9.43895 6.54323C9.87541 6.63005 10.2763 6.84434 10.591 7.15901C10.9057 7.47368 11.12 7.87459 11.2068 8.31105C11.2936 8.7475 11.249 9.1999 11.0787 9.61104C10.9084 10.0222 10.62 10.3736 10.25 10.6208C9.88002 10.868 9.44501 11 9 11C8.40326 11 7.83097 10.7629 7.40901 10.341C6.98705 9.91903 6.75 9.34674 6.75 8.75Z" fill="black"/>
</svg>
