<svg width="25" height="32" viewBox="0 0 25 32" fill="none" xmlns="http://www.w3.org/2000/svg">
<path d="M12.0312 7.25015C10.9496 7.25015 9.89231 7.57089 8.99298 8.1718C8.09364 8.77272 7.3927 9.62682 6.97878 10.6261C6.56487 11.6254 6.45657 12.725 6.66758 13.7858C6.87859 14.8466 7.39944 15.8211 8.16426 16.5859C8.92908 17.3507 9.90352 17.8716 10.9643 18.0826C12.0252 18.2936 13.1248 18.1853 14.1241 17.7714C15.1233 17.3575 15.9774 16.6565 16.5784 15.7572C17.1793 14.8578 17.5 13.8005 17.5 12.7189C17.5 11.2685 16.9238 9.8775 15.8982 8.85191C14.8727 7.82632 13.4817 7.25015 12.0312 7.25015ZM12.0312 16.0002C11.3823 16.0002 10.7479 15.8077 10.2083 15.4472C9.66869 15.0866 9.24812 14.5742 8.99977 13.9746C8.75142 13.375 8.68644 12.7153 8.81305 12.0788C8.93966 11.4423 9.25216 10.8576 9.71106 10.3987C10.1699 9.93982 10.7546 9.62731 11.3911 9.5007C12.0276 9.37409 12.6874 9.43907 13.2869 9.68742C13.8865 9.93577 14.399 10.3563 14.7595 10.8959C15.1201 11.4355 15.3125 12.0699 15.3125 12.7189C15.3125 13.5891 14.9668 14.4237 14.3514 15.0391C13.7361 15.6545 12.9015 16.0002 12.0312 16.0002ZM12.0312 0.687653C8.84147 0.691271 5.78338 1.96001 3.52787 4.21552C1.27235 6.47103 0.00361858 9.52913 0 12.7189C0 17.0119 1.98379 21.5619 5.74219 25.8781C7.43097 27.8285 9.33167 29.5847 11.4092 31.1144C11.5931 31.2432 11.8122 31.3123 12.0367 31.3123C12.2613 31.3123 12.4804 31.2432 12.6643 31.1144C14.7379 29.5841 16.635 27.8278 18.3203 25.8781C22.0732 21.5619 24.0625 17.0119 24.0625 12.7189C24.0589 9.52913 22.7901 6.47103 20.5346 4.21552C18.2791 1.96001 15.221 0.691271 12.0312 0.687653ZM12.0312 28.8517C9.77129 27.0744 2.1875 20.5461 2.1875 12.7189C2.1875 10.1082 3.22461 7.60438 5.07067 5.75832C6.91673 3.91226 9.42053 2.87515 12.0312 2.87515C14.642 2.87515 17.1458 3.91226 18.9918 5.75832C20.8379 7.60438 21.875 10.1082 21.875 12.7189C21.875 20.5433 14.2912 27.0744 12.0312 28.8517Z" fill="#472B30"/>
</svg>
